<svg width="19" height="20" viewBox="0 0 19 20" fill="none" xmlns="http://www.w3.org/2000/svg">
<path d="M17.5665 18.6032H17.3361V3.16772C17.3361 2.9997 17.2693 2.83855 17.1505 2.71974C17.0317 2.60093 16.8706 2.53418 16.7025 2.53418H14.8019V0.633544C14.8019 0.465518 14.7352 0.304374 14.6163 0.185561C14.4975 0.0667483 14.3364 0 14.1684 0H4.03165C3.86362 0 3.70248 0.0667483 3.58366 0.185561C3.46485 0.304374 3.3981 0.465518 3.3981 0.633544V2.53418H1.49747C1.32944 2.53418 1.1683 2.60093 1.04949 2.71974C0.930672 2.83855 0.863924 2.9997 0.863924 3.16772V18.6032H0.633545C0.465518 18.6032 0.304373 18.6699 0.18556 18.7887C0.0667477 18.9075 0 19.0687 0 19.2367C0 19.4047 0.0667477 19.5659 0.18556 19.6847C0.304373 19.8035 0.465518 19.8703 0.633545 19.8703H17.5665C17.7345 19.8703 17.8956 19.8035 18.0144 19.6847C18.1333 19.5659 18.2 19.4047 18.2 19.2367C18.2 19.0687 18.1333 18.9075 18.0144 18.7887C17.8956 18.6699 17.7345 18.6032 17.5665 18.6032ZM4.66519 1.26709H13.5348V2.53418H4.66519V1.26709ZM5.93228 18.6032V15.9538C5.93228 15.3176 6.448 14.8019 7.08418 14.8019H7.31456C7.95074 14.8019 8.46646 15.3176 8.46646 15.9538V18.6032H5.93228ZM9.73355 18.6032V15.9538C9.73355 15.3176 10.2493 14.8019 10.8854 14.8019H11.1158C11.752 14.8019 12.2677 15.3176 12.2677 15.9538V18.6032H9.73355ZM13.5348 18.6032V14.1684C13.5348 14.0003 13.4681 13.8392 13.3493 13.7204C13.2304 13.6016 13.0693 13.5348 12.9013 13.5348H5.29873C5.13071 13.5348 4.96956 13.6016 4.85075 13.7204C4.73194 13.8392 4.66519 14.0003 4.66519 14.1684V18.6032H2.13101V3.80127H16.069V18.6032H13.5348Z" fill="#BDC0C2"/>
</svg>
