<svg width="21" height="21" viewBox="0 0 21 21" fill="none" xmlns="http://www.w3.org/2000/svg">
<path fill-rule="evenodd" clip-rule="evenodd" d="M5.13588 12.3948C7.96934 12.3948 10.2708 14.6963 10.2708 17.5307C10.2708 18.2577 9.81258 18.8914 8.96982 19.3272C8.03933 19.8088 6.58901 20.0664 5.13588 20.0664C3.68182 20.0664 2.23149 19.8088 1.301 19.3272C0.458244 18.8914 0 18.2577 0 17.5307C0 14.6963 2.30149 12.3948 5.13588 12.3948ZM5.13588 13.7947C3.07425 13.7947 1.39993 15.469 1.39993 17.5307C1.39993 17.7845 1.64912 17.931 1.94404 18.0841C2.7168 18.4835 3.9282 18.6665 5.13588 18.6665C6.34262 18.6665 7.55402 18.4835 8.32679 18.0841C8.6217 17.931 8.87089 17.7845 8.87089 17.5307C8.87089 15.469 7.19751 13.7947 5.13588 13.7947Z" fill="#B9BCBE"/>
<path fill-rule="evenodd" clip-rule="evenodd" d="M14.9387 4.92859C17.773 4.92859 20.0745 7.23007 20.0745 10.0645C20.0745 10.7915 19.6163 11.4252 18.7735 11.861C17.843 12.3426 16.3927 12.6002 14.9387 12.6002C13.4855 12.6002 12.0352 12.3426 11.1047 11.861C10.262 11.4252 9.80371 10.7915 9.80371 10.0645C9.80371 7.23007 12.1052 4.92859 14.9387 4.92859ZM14.9387 6.32852C12.877 6.32852 11.2036 8.00284 11.2036 10.0645C11.2036 10.3183 11.4528 10.4648 11.7477 10.6179C12.5205 11.0174 13.7319 11.2003 14.9387 11.2003C16.1463 11.2003 17.3577 11.0174 18.1305 10.6179C18.4254 10.4648 18.6746 10.3183 18.6746 10.0645C18.6746 8.00284 17.0003 6.32852 14.9387 6.32852Z" fill="#B9BCBE"/>
<path fill-rule="evenodd" clip-rule="evenodd" d="M5.13548 7.46716C6.88166 7.46716 8.29932 8.88483 8.29932 10.631C8.29932 12.3772 6.88166 13.7948 5.13548 13.7948C3.3893 13.7948 1.9707 12.3772 1.9707 10.631C1.9707 8.88483 3.3893 7.46716 5.13548 7.46716ZM5.13548 8.86709C4.16113 8.86709 3.37063 9.65759 3.37063 10.631C3.37063 11.6044 4.16113 12.3949 5.13548 12.3949C6.1089 12.3949 6.89939 11.6044 6.89939 10.631C6.89939 9.65759 6.1089 8.86709 5.13548 8.86709Z" fill="#B9BCBE"/>
<path fill-rule="evenodd" clip-rule="evenodd" d="M14.9392 0.000488281C16.6854 0.000488281 18.104 1.41815 18.104 3.16433C18.104 4.91051 16.6854 6.32817 14.9392 6.32817C13.1931 6.32817 11.7754 4.91051 11.7754 3.16433C11.7754 1.41815 13.1931 0.000488281 14.9392 0.000488281ZM14.9392 1.40042C13.9658 1.40042 13.1753 2.19091 13.1753 3.16433C13.1753 4.13775 13.9658 4.92824 14.9392 4.92824C15.9136 4.92824 16.7041 4.13775 16.7041 3.16433C16.7041 2.19091 15.9136 1.40042 14.9392 1.40042Z" fill="#B9BCBE"/>
<path fill-rule="evenodd" clip-rule="evenodd" d="M18.6752 14.6988C18.6752 14.3124 18.9897 13.9998 19.3752 13.9998C19.7616 13.9998 20.0751 14.3143 20.0751 14.7007L20.0723 17.5024C20.0705 18.9182 18.9225 20.0661 17.5058 20.0661H12.3709C11.9845 20.0661 11.6709 19.7525 11.6709 19.3662C11.6709 18.9798 11.9845 18.6662 12.3709 18.6662H17.5058C18.1498 18.6662 18.6715 18.1445 18.6724 17.5005L18.6752 14.6988Z" fill="#B9BCBE"/>
<path fill-rule="evenodd" clip-rule="evenodd" d="M1.40481 5.36782C1.40481 5.7542 1.0903 6.06685 0.703915 6.06685C0.317534 6.06685 0.00488281 5.75234 0.00488281 5.36595L0.00768269 2.56423C0.00861598 1.14843 1.15749 0.000488281 2.57422 0.000488281H9.57107C9.95745 0.000488281 10.271 0.314073 10.271 0.700454C10.271 1.08683 9.95745 1.40042 9.57107 1.40042H2.57422C1.93025 1.40042 1.40855 1.92213 1.40761 2.56609L1.40481 5.36782Z" fill="#B9BCBE"/>
</svg>
