<svg width="21" height="21" viewBox="0 0 21 21" fill="none" xmlns="http://www.w3.org/2000/svg">
<path d="M17.4831 20.8355H3.14188C2.30853 20.8319 1.51044 20.4988 0.921816 19.9088C0.333188 19.3189 0.00180769 18.5201 0 17.6868V7.04426C0.00344277 6.4801 0.158397 5.92722 0.44866 5.44345C0.738923 4.95968 1.15383 4.56278 1.65 4.29426L8.80688 0.38238C9.26781 0.131461 9.78426 0 10.3091 0C10.8339 0 11.3503 0.131461 11.8113 0.38238L18.9888 4.27363C19.4849 4.54215 19.8998 4.93905 20.1901 5.42283C20.4804 5.9066 20.6353 6.45947 20.6388 7.02363V17.6868C20.6369 18.5225 20.3037 19.3234 19.7121 19.9137C19.1205 20.504 18.3189 20.8355 17.4831 20.8355ZM10.3125 1.37238C10.0173 1.37194 9.72662 1.4452 9.46688 1.58551L2.28937 5.48363C2.01098 5.63781 1.77919 5.86405 1.61831 6.13863C1.45744 6.41321 1.37339 6.72602 1.375 7.04426V17.6868C1.375 18.1572 1.56188 18.6083 1.89452 18.941C2.22716 19.2736 2.67832 19.4605 3.14875 19.4605H17.4831C17.9524 19.4587 18.4018 19.271 18.7329 18.9386C19.0641 18.6061 19.25 18.156 19.25 17.6868V7.04426C19.2503 6.72464 19.1641 6.41089 19.0008 6.13618C18.8374 5.86147 18.6028 5.63601 18.3219 5.48363L11.1581 1.59238C10.899 1.44968 10.6083 1.37405 10.3125 1.37238Z" fill="#BDC0C2"/>
<path d="M10.313 17.8173C9.35606 17.8175 8.42881 17.485 7.69006 16.8767C6.95132 16.2684 6.44706 15.4222 6.26364 14.483C6.24869 14.3844 6.25533 14.2838 6.28312 14.1881C6.31091 14.0924 6.35917 14.0039 6.42457 13.9287C6.48996 13.8535 6.57093 13.7934 6.66185 13.7526C6.75278 13.7118 6.85149 13.6912 6.95114 13.6923C7.11493 13.69 7.27418 13.7461 7.40022 13.8507C7.52627 13.9554 7.61082 14.1015 7.63864 14.263C7.76812 14.881 8.10633 15.4356 8.59646 15.8337C9.08659 16.2318 9.69878 16.4491 10.3302 16.4491C10.9616 16.4491 11.5738 16.2318 12.064 15.8337C12.5541 15.4356 12.8923 14.881 13.0218 14.263C13.0496 14.1015 13.1341 13.9554 13.2602 13.8507C13.3862 13.7461 13.5455 13.69 13.7093 13.6923C13.8089 13.6912 13.9076 13.7118 13.9986 13.7526C14.0895 13.7934 14.1704 13.8535 14.2358 13.9287C14.3012 14.0039 14.3495 14.0924 14.3773 14.1881C14.4051 14.2838 14.4117 14.3844 14.3968 14.483C14.2123 15.428 13.7029 16.2787 12.9571 16.8877C12.2113 17.4967 11.2759 17.8256 10.313 17.8173Z" fill="#BDC0C2"/>
</svg>
