<svg width="19" height="18" viewBox="0 0 19 18" fill="none" xmlns="http://www.w3.org/2000/svg">
<path d="M13.9059 10.9545H4.08771C3.91222 10.9545 3.76953 10.8118 3.76953 10.6363C3.76953 10.4608 3.91222 10.3181 4.08771 10.3181H13.9059C14.0814 10.3181 14.2241 10.4608 14.2241 10.6363C14.2241 10.8118 14.0814 10.9545 13.9059 10.9545Z" fill="#B9BCBE" stroke="#B9BCBE"/>
<path d="M0.818182 15.8636C0.642688 15.8636 0.5 15.7209 0.5 15.5454V2.45453C0.5 2.27904 0.642688 2.13635 0.818182 2.13635C0.993676 2.13635 1.13636 2.27904 1.13636 2.45453V15.5454C1.13636 15.7209 0.993676 15.8636 0.818182 15.8636Z" fill="#B9BCBE" stroke="#B9BCBE"/>
<path d="M17.1834 15.8637C17.0079 15.8637 16.8652 15.721 16.8652 15.5455V2.4546C16.8652 2.2791 17.0079 2.13641 17.1834 2.13641C17.3589 2.13641 17.5016 2.2791 17.5016 2.4546V15.5455C17.5016 15.721 17.3589 15.8637 17.1834 15.8637Z" fill="#B9BCBE" stroke="#B9BCBE"/>
<path d="M10.6332 7.68183H4.08771C3.91222 7.68183 3.76953 7.53915 3.76953 7.36365C3.76953 7.18816 3.91222 7.04547 4.08771 7.04547H10.6332C10.8087 7.04547 10.9513 7.18816 10.9513 7.36365C10.9513 7.53915 10.8087 7.68183 10.6332 7.68183Z" fill="#B9BCBE" stroke="#B9BCBE"/>
<path d="M10.6332 4.40919H4.08771C3.91222 4.40919 3.76953 4.2665 3.76953 4.09101C3.76953 3.91552 3.91222 3.77283 4.08771 3.77283H10.6332C10.8087 3.77283 10.9513 3.91551 10.9513 4.09101C10.9513 4.2665 10.8087 4.40919 10.6332 4.40919Z" fill="#B9BCBE" stroke="#B9BCBE"/>
<path d="M10.6385 7.68192C10.463 7.68192 10.3203 7.53923 10.3203 7.36374V4.09101C10.3203 3.91552 10.463 3.77283 10.6385 3.77283C10.814 3.77283 10.9567 3.91552 10.9567 4.09101V7.36374C10.9567 7.53923 10.814 7.68192 10.6385 7.68192Z" fill="#B9BCBE" stroke="#B9BCBE"/>
<path d="M4.08771 7.68192C3.91222 7.68192 3.76953 7.53923 3.76953 7.36374V4.09101C3.76953 3.91552 3.91222 3.77283 4.08771 3.77283C4.26321 3.77283 4.40589 3.91552 4.40589 4.09101V7.36374C4.40589 7.53923 4.26321 7.68192 4.08771 7.68192Z" fill="#B9BCBE" stroke="#B9BCBE"/>
<path d="M0.818182 2.77273C0.642688 2.77273 0.5 2.63004 0.5 2.45455C0.5 1.37701 1.37701 0.5 2.45455 0.5C2.63004 0.5 2.77273 0.642688 2.77273 0.818182C2.77273 0.993676 2.63004 1.13636 2.45455 1.13636C1.72718 1.13636 1.13636 1.72718 1.13636 2.45455C1.13636 2.63004 0.993676 2.77273 0.818182 2.77273Z" fill="#B9BCBE" stroke="#B9BCBE"/>
<path d="M15.5439 1.13636H2.45295C2.27745 1.13636 2.13477 0.993676 2.13477 0.818182C2.13477 0.642688 2.27745 0.5 2.45295 0.5H15.5439C15.7194 0.5 15.862 0.642688 15.862 0.818182C15.862 0.993676 15.7194 1.13636 15.5439 1.13636Z" fill="#B9BCBE" stroke="#B9BCBE"/>
<path d="M17.185 2.77273C17.0095 2.77273 16.8668 2.63004 16.8668 2.45455C16.8668 1.72718 16.276 1.13636 15.5487 1.13636C15.3732 1.13636 15.2305 0.993676 15.2305 0.818182C15.2305 0.642688 15.3732 0.5 15.5487 0.5C16.6262 0.5 17.5032 1.37701 17.5032 2.45455C17.5032 2.63004 17.3605 2.77273 17.185 2.77273Z" fill="#B9BCBE" stroke="#B9BCBE"/>
<path d="M13.9059 14.2273H4.08771C3.91222 14.2273 3.76953 14.0846 3.76953 13.9091C3.76953 13.7336 3.91222 13.5909 4.08771 13.5909H13.9059C14.0814 13.5909 14.2241 13.7336 14.2241 13.9091C14.2241 14.0846 14.0814 14.2273 13.9059 14.2273Z" fill="#B9BCBE" stroke="#B9BCBE"/>
<path d="M15.5487 17.4999C15.3732 17.4999 15.2305 17.3572 15.2305 17.1817C15.2305 17.0062 15.3732 16.8635 15.5487 16.8635C16.276 16.8635 16.8668 16.2727 16.8668 15.5454C16.8668 15.3699 17.0095 15.2272 17.185 15.2272C17.3605 15.2272 17.5032 15.3699 17.5032 15.5454C17.5032 16.6229 16.6262 17.4999 15.5487 17.4999Z" fill="#B9BCBE" stroke="#B9BCBE"/>
<path d="M15.5439 17.5H2.45295C2.27745 17.5 2.13477 17.3573 2.13477 17.1818C2.13477 17.0063 2.27745 16.8636 2.45295 16.8636H15.5439C15.7194 16.8636 15.862 17.0063 15.862 17.1818C15.862 17.3573 15.7194 17.5 15.5439 17.5Z" fill="#B9BCBE" stroke="#B9BCBE"/>
<path d="M2.45455 17.5C1.37701 17.5 0.5 16.623 0.5 15.5455C0.5 15.37 0.642688 15.2273 0.818182 15.2273C0.993676 15.2273 1.13636 15.37 1.13636 15.5455C1.13636 16.2728 1.72718 16.8637 2.45455 16.8637C2.63004 16.8637 2.77273 17.0063 2.77273 17.1818C2.77273 17.3573 2.63004 17.5 2.45455 17.5Z" fill="#B9BCBE" stroke="#B9BCBE"/>
</svg>
