<svg width="18" height="22" viewBox="0 0 18 22" fill="none" xmlns="http://www.w3.org/2000/svg">
<path d="M12.3006 10.6944C13.6396 9.71791 14.5115 8.13755 14.5115 6.35718C14.5115 3.39865 12.1045 0.991699 9.146 0.991699C6.18747 0.991699 3.78052 3.39865 3.78052 6.35718C3.78052 8.13755 4.65239 9.71791 5.99137 10.6944C2.66293 11.9681 0.292969 15.1952 0.292969 18.9661C0.292969 20.5933 1.61678 21.9171 3.24398 21.9171H15.048C16.6752 21.9171 17.999 20.5933 17.999 18.9661C17.999 15.1952 15.6291 11.9681 12.3006 10.6944ZM5.39018 6.35718C5.39018 4.28622 7.07504 2.60136 9.146 2.60136C11.217 2.60136 12.9018 4.28622 12.9018 6.35718C12.9018 8.42814 11.217 10.113 9.146 10.113C7.07504 10.113 5.39018 8.42814 5.39018 6.35718ZM15.048 20.3074H3.24398C2.50436 20.3074 1.90263 19.7057 1.90263 18.966C1.90263 14.972 5.15195 11.7226 9.14604 11.7226C13.1401 11.7226 16.3894 14.9719 16.3894 18.966C16.3894 19.7057 15.7877 20.3074 15.048 20.3074Z" fill="#B9BCBE"/>
</svg>
